<svg width="1600" height="1200" viewBox="0 0 1600 1200" fill="none" xmlns="http://www.w3.org/2000/svg">
  <defs>
    <linearGradient id="bg" x1="1600" y1="0" x2="0" y2="1200" gradientUnits="userSpaceOnUse">
      <stop stop-color="#171223"/>
      <stop offset="1" stop-color="#090A0F"/>
    </linearGradient>
    <filter id="shadow" x="86" y="88" width="1428" height="1024" filterUnits="userSpaceOnUse" color-interpolation-filters="sRGB">
      <feDropShadow dx="0" dy="28" stdDeviation="34" flood-color="#000000" flood-opacity="0.48"/>
    </filter>
  </defs>
  <rect width="1600" height="1200" fill="#0A0A0F"/>
  <rect width="1600" height="1200" fill="url(#bg)"/>
  <circle cx="1344" cy="170" r="232" fill="#C9A84C" fill-opacity="0.13"/>
  <circle cx="224" cy="930" r="254" fill="#6C3FE8" fill-opacity="0.13"/>
  <g filter="url(#shadow)">
    <rect x="110" y="112" width="1380" height="976" rx="46" fill="#10131B" stroke="#FFFFFF" stroke-opacity="0.08"/>
    <rect x="148" y="150" width="1304" height="68" rx="24" fill="#171B27"/>
    <circle cx="190" cy="184" r="8" fill="#C9A84C"/>
    <circle cx="220" cy="184" r="8" fill="#6C3FE8"/>
    <circle cx="250" cy="184" r="8" fill="#FFFFFF" fill-opacity="0.35"/>
    <rect x="184" y="252" width="308" height="764" rx="30" fill="#131825" stroke="#FFFFFF" stroke-opacity="0.06"/>
    <rect x="530" y="252" width="884" height="200" rx="30" fill="#131723" stroke="#C9A84C" stroke-opacity="0.2"/>
    <rect x="530" y="484" width="278" height="188" rx="24" fill="#171C2B"/>
    <rect x="834" y="484" width="278" height="188" rx="24" fill="#171C2B"/>
    <rect x="1138" y="484" width="276" height="188" rx="24" fill="#171C2B"/>
    <rect x="530" y="706" width="884" height="270" rx="28" fill="#10131B" stroke="#FFFFFF" stroke-opacity="0.06"/>
    <text x="214" y="314" fill="#E8C96B" font-family="Arial, sans-serif" font-size="16" font-weight="700" letter-spacing="2">CASAXA</text>
    <text x="214" y="376" fill="#F0F0FF" font-family="Arial, sans-serif" font-size="72" font-weight="800">Stock Web</text>
    <text x="214" y="428" fill="#9090B0" font-family="Arial, sans-serif" font-size="22">Gestion articles, inventaires et mouvements</text>
    <rect x="214" y="500" width="220" height="18" rx="9" fill="#FFFFFF" fill-opacity="0.16"/>
    <rect x="214" y="540" width="174" height="16" rx="8" fill="#FFFFFF" fill-opacity="0.1"/>
    <rect x="214" y="620" width="220" height="70" rx="22" fill="#171C2A"/>
    <rect x="214" y="710" width="220" height="70" rx="22" fill="#171C2A"/>
    <rect x="214" y="800" width="220" height="70" rx="22" fill="#171C2A"/>
    <text x="562" y="318" fill="#F0F0FF" font-family="Arial, sans-serif" font-size="38" font-weight="700">Dashboard de gestion de stock</text>
    <text x="562" y="370" fill="#A1A6BA" font-family="Arial, sans-serif" font-size="22">Entrees, sorties, alertes et inventaires</text>
    <text x="586" y="594" fill="#F0F0FF" font-family="Arial, sans-serif" font-size="24" font-weight="700">Referentiel</text>
    <text x="890" y="594" fill="#F0F0FF" font-family="Arial, sans-serif" font-size="24" font-weight="700">Mouvements</text>
    <text x="1194" y="594" fill="#F0F0FF" font-family="Arial, sans-serif" font-size="24" font-weight="700">Alertes</text>
    <circle cx="1272" cy="836" r="74" fill="#C9A84C" fill-opacity="0.86"/>
    <circle cx="1272" cy="836" r="112" fill="#6C3FE8" fill-opacity="0.18"/>
    <rect x="576" y="764" width="400" height="18" rx="9" fill="#FFFFFF" fill-opacity="0.12"/>
    <rect x="576" y="806" width="680" height="16" rx="8" fill="#FFFFFF" fill-opacity="0.08"/>
    <rect x="576" y="846" width="560" height="16" rx="8" fill="#FFFFFF" fill-opacity="0.08"/>
  </g>
</svg>
