<svg width="1600" height="1200" viewBox="0 0 1600 1200" fill="none" xmlns="http://www.w3.org/2000/svg">
  <defs>
    <linearGradient id="bg" x1="1600" y1="0" x2="60" y2="1200" gradientUnits="userSpaceOnUse">
      <stop stop-color="#171521"/>
      <stop offset="1" stop-color="#090A0F"/>
    </linearGradient>
    <filter id="shadow" x="88" y="92" width="1424" height="1016" filterUnits="userSpaceOnUse" color-interpolation-filters="sRGB">
      <feDropShadow dx="0" dy="28" stdDeviation="34" flood-color="#000000" flood-opacity="0.46"/>
    </filter>
  </defs>
  <rect width="1600" height="1200" fill="#0A0A0F"/>
  <rect width="1600" height="1200" fill="url(#bg)"/>
  <circle cx="1322" cy="184" r="228" fill="#6C3FE8" fill-opacity="0.16"/>
  <circle cx="240" cy="220" r="186" fill="#C9A84C" fill-opacity="0.11"/>
  <g filter="url(#shadow)">
    <rect x="112" y="116" width="1376" height="968" rx="46" fill="#0F1118" stroke="#FFFFFF" stroke-opacity="0.08"/>
    <rect x="154" y="158" width="260" height="884" rx="28" fill="#121521" stroke="#FFFFFF" stroke-opacity="0.06"/>
    <rect x="450" y="158" width="996" height="120" rx="28" fill="#141827" stroke="#FFFFFF" stroke-opacity="0.06"/>
    <rect x="450" y="314" width="458" height="284" rx="30" fill="#151928" stroke="#C9A84C" stroke-opacity="0.22"/>
    <rect x="936" y="314" width="510" height="284" rx="30" fill="#151928" stroke="#FFFFFF" stroke-opacity="0.06"/>
    <rect x="450" y="630" width="996" height="370" rx="30" fill="#10131D" stroke="#FFFFFF" stroke-opacity="0.06"/>
    <rect x="186" y="204" width="144" height="16" rx="8" fill="#C9A84C"/>
    <rect x="186" y="244" width="92" height="12" rx="6" fill="#FFFFFF" fill-opacity="0.2"/>
    <rect x="186" y="320" width="196" height="58" rx="20" fill="#171B29"/>
    <rect x="186" y="398" width="196" height="58" rx="20" fill="#171B29"/>
    <rect x="186" y="476" width="196" height="58" rx="20" fill="#171B29"/>
    <rect x="186" y="554" width="196" height="58" rx="20" fill="#171B29"/>
    <rect x="186" y="632" width="196" height="58" rx="20" fill="#171B29"/>
    <rect x="186" y="710" width="196" height="58" rx="20" fill="#171B29"/>
    <text x="482" y="230" fill="#F0F0FF" font-family="Arial, sans-serif" font-size="30" font-weight="700">ERP Business Suite</text>
    <text x="482" y="268" fill="#9090B0" font-family="Arial, sans-serif" font-size="18">Spring Boot · React · API-first · Gestion metier</text>
    <text x="488" y="388" fill="#E8C96B" font-family="Arial, sans-serif" font-size="16" font-weight="700" letter-spacing="2.4">ERP CORE</text>
    <text x="488" y="470" fill="#F0F0FF" font-family="Arial, sans-serif" font-size="94" font-weight="800">ERP</text>
    <text x="488" y="524" fill="#A1A6BA" font-family="Arial, sans-serif" font-size="24">Pilotage, ventes, achats et operations</text>
    <text x="968" y="388" fill="#E8C96B" font-family="Arial, sans-serif" font-size="16" font-weight="700" letter-spacing="2.4">STACK</text>
    <text x="968" y="452" fill="#F0F0FF" font-family="Arial, sans-serif" font-size="38" font-weight="700">Back-office premium</text>
    <text x="968" y="506" fill="#A1A6BA" font-family="Arial, sans-serif" font-size="22">UI metier, workflow et dashboards</text>
    <rect x="486" y="706" width="260" height="20" rx="10" fill="#C9A84C" fill-opacity="0.92"/>
    <rect x="486" y="760" width="564" height="16" rx="8" fill="#FFFFFF" fill-opacity="0.14"/>
    <rect x="486" y="800" width="752" height="16" rx="8" fill="#FFFFFF" fill-opacity="0.1"/>
    <rect x="486" y="840" width="444" height="16" rx="8" fill="#FFFFFF" fill-opacity="0.08"/>
    <circle cx="1234" cy="786" r="86" fill="#6C3FE8" fill-opacity="0.22"/>
    <circle cx="1234" cy="786" r="48" fill="#C9A84C" fill-opacity="0.82"/>
  </g>
</svg>
