<svg width="1600" height="1200" viewBox="0 0 1600 1200" fill="none" xmlns="http://www.w3.org/2000/svg">
  <defs>
    <linearGradient id="bg" x1="1480" y1="0" x2="240" y2="1200" gradientUnits="userSpaceOnUse">
      <stop stop-color="#161819"/>
      <stop offset="1" stop-color="#0A0A0F"/>
    </linearGradient>
    <clipPath id="hero">
      <rect x="108" y="96" width="1384" height="1008" rx="42"/>
    </clipPath>
    <filter id="shadow" x="48" y="54" width="1504" height="1092" filterUnits="userSpaceOnUse" color-interpolation-filters="sRGB">
      <feDropShadow dx="0" dy="24" stdDeviation="28" flood-color="#000000" flood-opacity="0.5"/>
    </filter>
    <linearGradient id="fade" x1="800" y1="96" x2="800" y2="1104" gradientUnits="userSpaceOnUse">
      <stop stop-color="rgba(10,10,15,0.18)"/>
      <stop offset="0.48" stop-color="rgba(10,10,15,0.26)"/>
      <stop offset="0.78" stop-color="rgba(10,10,15,0.68)"/>
      <stop offset="1" stop-color="rgba(10,10,15,0.92)"/>
    </linearGradient>
  </defs>
  <rect width="1600" height="1200" fill="#090A0E"/>
  <rect width="1600" height="1200" fill="url(#bg)"/>
  <circle cx="1320" cy="208" r="228" fill="#C9A84C" fill-opacity="0.14"/>
  <circle cx="258" cy="918" r="224" fill="#6C3FE8" fill-opacity="0.12"/>
  <g filter="url(#shadow)">
    <rect x="84" y="70" width="1432" height="1060" rx="48" fill="#0D0F14" stroke="#FFFFFF" stroke-opacity="0.08"/>
    <g clip-path="url(#hero)">
      <image href="./ffast-preview.jpg" x="80" y="22" width="1448" height="1120" preserveAspectRatio="xMidYMid slice"/>
      <rect x="108" y="96" width="1384" height="1008" fill="url(#fade)"/>
    </g>
    <rect x="108" y="96" width="1384" height="1008" rx="42" stroke="#FFFFFF" stroke-opacity="0.06"/>
    <rect x="150" y="136" width="220" height="58" rx="29" fill="#121419" fill-opacity="0.78" stroke="#C9A84C" stroke-opacity="0.28"/>
    <circle cx="186" cy="165" r="7" fill="#F0D25E"/>
    <text x="208" y="172" fill="#F5D76B" font-family="Arial, sans-serif" font-size="22" font-weight="700" letter-spacing="2.4">PROJET REALISE</text>
    <text x="170" y="776" fill="#F5C536" font-family="Arial, sans-serif" font-size="116" font-weight="800">FFast Car</text>
    <text x="170" y="852" fill="#F2F3F5" font-family="Arial, sans-serif" font-size="70" font-weight="700">Location de vehicules</text>
    <text x="170" y="922" fill="#D8DADF" font-family="Arial, sans-serif" font-size="30">Flotte, reservation et conversion dans une interface premium</text>
    <rect x="170" y="976" width="278" height="64" rx="32" fill="#121419" fill-opacity="0.76" stroke="#FFFFFF" stroke-opacity="0.1"/>
    <text x="218" y="1017" fill="#FFD34D" font-family="Arial, sans-serif" font-size="24" font-weight="700" letter-spacing="2">LOCATION DE VEHICULES</text>
    <rect x="1046" y="906" width="298" height="86" rx="43" fill="#11141B" fill-opacity="0.74" stroke="#C9A84C" stroke-opacity="0.22"/>
    <text x="1098" y="961" fill="#F6D66E" font-family="Arial, sans-serif" font-size="34" font-weight="700">Reservation rapide</text>
  </g>
</svg>
